PathFileType	4	(X/Y/Z)	Patient4_TMGait_0pt4_01_right_23.trc.trc
DataRate	CameraRate	NumFrames	NumMarkers	Units	OrigDataRate	OrigDataStartFrame	OrigNumFrames
76.086956521739	76.086956521739	6	33	mm	76.086956521739	1	       141
Frame#	Time	Sacral			L.Shoulder			Chest			R.Shoulder			Neck			R.ASIS			L.ASIS			R.Thigh.Superior			R.Thigh.Lateral			R.Thigh.Inferior			R.Patella			L.Thigh.Superior			L.Thigh.Lateral			L.Thigh.Inferior			L.Patella			L.Shank.Superior			L.Shank.Lateral			L.Shank.Inferior			R.Shank.Superior			R.Shank.Lateral			R.Shank.Inferior			R.Heel			R.Midfoot.Superior			R.Midfoot.Lateral			R.Toe			L.Heel			L.Midfoot.Lateral			L.Midfoot.Superior			L.Toe			L.Elbow			L.Wrist			R.Elbow			R.Wrist			
		X1	Y1	Z1	X2	Y2	Z2	X3	Y3	Z3	X4	Y4	Z4	X5	Y5	Z5	X6	Y6	Z6	X7	Y7	Z7	X8	Y8	Z8	X9	Y9	Z9	X10	Y10	Z10	X11	Y11	Z11	X12	Y12	Z12	X13	Y13	Z13	X14	Y14	Z14	X15	Y15	Z15	X16	Y16	Z16	X17	Y17	Z17	X18	Y18	Z18	X19	Y19	Z19	X20	Y20	Z20	X21	Y21	Z21	X22	Y22	Z22	X23	Y23	Z23	X24	Y24	Z24	X25	Y25	Z25	X26	Y26	Z26	X27	Y27	Z27	X28	Y28	Z28	X29	Y29	Z29	X30	Y30	Z30	X31	Y31	Z31	X32	Y32	Z32	X33	Y33	Z33	

1	29.560000000000	808.194161226650	1002.225900590068	423.034151455923	970.961139604351	1428.397472123930	217.645331746014	1079.501941336003	1371.544360777090	379.286864831131	996.712093350561	1452.904366871748	550.492674184758	966.976201393413	1497.815915544593	370.144545096661	1041.379897320355	950.746706899072	537.034578800548	1024.261526126681	967.139413937928	263.312992178565	1125.832567527409	776.987836628514	507.727026119203	1087.392449158361	654.642876275247	583.678816411332	1176.307454013770	616.088269132100	504.783053347138	1197.719940196731	506.256144098604	527.320487429323	1081.234058062406	755.516321929903	293.942813369224	997.520589702304	636.521164179935	236.345408276712	1082.351545575053	562.916214047400	301.174419201853	1083.070574071645	494.822792198177	312.431067445078	1060.394129713325	420.906502856701	304.093672636613	975.828331958217	302.810158810091	252.422597741072	1029.875909106343	195.158840575568	327.802339651189	1127.037431600129	426.743821880376	535.144959283138	1011.749977362575	376.900525200839	600.327159396264	1004.150703326124	267.441707891477	550.151426654578	807.400158473369	182.903189838706	530.577656089667	985.285158043329	150.573394510294	565.278378164488	877.901674425345	132.576733383309	601.766764119426	1066.335183040251	47.702632212213	586.278724273342	904.839206783885	37.944605969700	369.956280091633	980.355472070677	34.311659740579	290.501506812053	1061.519920560996	98.022393237126	318.425479437216	1191.395275706111	50.035004038603	294.357290960079	966.524517915815	1076.358244649684	101.853891229045	1089.366111841969	844.181730155432	93.243469286599	955.457054208007	1112.378296383991	684.870862856833	1032.812748772647	861.237563018275	687.954223132976	
2	29.573142857143	807.123639948658	1002.879613951940	421.298202711276	972.818775942893	1428.972068090888	216.702315519252	1079.587176853144	1371.725492791327	379.369379378896	995.351742909633	1453.208235956266	549.770855727441	967.478858725625	1498.306536196599	369.293558834398	1039.608719459042	951.610398858720	536.784973910929	1023.923960830204	967.433874592681	262.956613199129	1125.248702506526	779.300250609625	507.263373476244	1088.646978285968	657.022920276189	584.011046822256	1176.939353049216	618.901246949554	504.078287343541	1200.074526705786	510.519557801589	527.041172843429	1078.684138098090	755.031238474781	294.293767436821	994.183234551719	636.908494943160	235.608532518953	1077.933308401372	562.466247676304	301.099367508791	1077.918529341054	494.489285002725	312.248455042575	1055.259446717282	420.797293346209	303.786118036729	970.526946482106	302.767738624434	252.086268296984	1024.312835931097	195.111007506974	327.653487198367	1133.009211309167	429.417541894798	535.730208719607	1020.981977174442	374.543910209878	601.570173388339	1018.720844498631	264.896920963584	551.842334922156	827.095033344676	171.318359060271	533.129719602255	1005.804000707635	147.035500954014	567.306540767165	899.712031015803	124.556207486246	604.273099788173	1091.140810769840	48.443576466669	588.636358542137	899.217231187362	37.909393545537	369.947606419725	974.761520546010	34.287573563906	290.474068365284	1055.911655213975	98.015489597576	318.400942454955	1185.809255259194	50.052817525157	294.427145164958	971.563275647774	1077.372415613515	99.864340954492	1099.602940323424	848.063226732920	94.037861706360	947.039893429673	1114.194491728722	684.031095396267	1012.783701750543	861.658669936318	695.353403620589	
3	29.586285714286	806.071791827687	1003.503371706533	419.608980684853	974.683169788024	1429.491845133573	215.786859382278	1079.689666470185	1371.864519190054	379.469271788770	994.028511492891	1453.492671833799	549.063852210762	967.995877392844	1498.760326939983	368.454892194902	1037.854267345943	952.409998474544	536.562988061972	1023.586952306458	967.713972100670	262.625990942726	1124.577705617753	781.458560622729	506.852920653300	1089.695025993523	659.267326147355	584.374039065971	1177.364169894994	621.534591318828	503.433109516189	1202.229323855538	514.666242594695	526.808674623558	1076.171328083009	754.550171324737	294.646440872087	990.883823925402	637.274134616496	234.884817207441	1073.550890148302	562.009748050306	301.013980892538	1072.813017928529	494.153821963320	312.056638807055	1050.169074662539	420.679007911660	303.475946497657	965.276003769469	302.717554674272	251.745057054094	1018.795619011192	195.057338744319	327.504643469844	1138.813875878306	432.026104734102	536.366234035153	1030.136116325979	372.114647736317	602.854056075692	1033.296760118939	262.367050163310	553.569422699406	846.988380790574	159.765113049371	535.634280511649	1026.416590392391	143.537852236400	569.389935505130	921.652422823641	116.579854662350	606.770133346802	1115.988478493758	49.263108801552	591.077400837773	893.635962426294	37.871913540937	369.940415021473	969.204714663122	34.262192833668	290.447535151859	1050.342000933911	98.006758775670	318.379146316715	1180.261031048316	50.070011601025	294.495811693338	976.520905572966	1078.345532054312	97.888556036838	1109.744383653548	851.938577696134	94.836504300229	938.712997623475	1116.033608450036	683.267679807666	993.085792019257	862.255146151460	702.597440932751	
4	29.599428571429	805.064614964662	1004.067873653480	418.014885113368	976.546204317794	1429.909096781928	214.935618842259	1079.823876440637	1371.926926222399	379.607835726839	992.782439270089	1453.741671031394	548.395778669176	968.538810012278	1499.144308885727	367.651836104297	1036.146297360295	953.087211216548	536.397850255273	1023.262527591001	967.966846888911	262.348276487505	1123.743742079580	783.317935531373	506.553206155844	1090.354972165792	661.245723146961	584.801349870789	1177.416905056045	623.823388413022	502.922016383929	1204.002424598127	518.570637145975	526.674293602056	1073.738679801558	754.074120705694	295.003733702810	987.667861629272	637.598328511431	234.193652183171	1069.247041891197	561.541026481854	300.918012252258	1067.805555478924	493.813153515362	311.856711286883	1045.170623194741	420.542779980835	303.169557990797	960.125721336506	302.654811634789	251.399534131585	1013.367296121207	194.992459842977	327.359738573870	1144.277580488141	434.498857704317	537.088584644670	1039.106366090082	369.575000093587	604.209026100126	1047.787457944371	259.895908169550	555.341454332279	867.113031958910	148.366992570456	538.054950863556	1047.063568785351	140.173866237716	571.540578019395	943.700826830441	108.761068105229	609.228626949224	1140.753539091830	50.268398752356	593.594784287484	888.130393673534	37.831275793637	369.935724020599	963.716642214851	34.234697210212	290.423194810967	1044.844301601588	97.993665428422	318.363309871278	1174.782571391557	50.084452014731	294.561923921960	981.319630033070	1079.241113987751	95.957962211399	1119.681520816414	855.801593809508	95.645032514170	930.581247335576	1117.918886136245	682.650415908206	974.099552214355	863.170682394266	709.520398449578	
5	29.612571428571	804.123472659315	1004.552383515149	416.550905448905	978.398907798702	1430.186332030872	214.180978157398	1080.001208746593	1371.886218051877	379.804346529044	991.646933203062	1453.943481311079	547.789123710779	969.118482997331	1499.432449858175	366.905945053842	1034.510914489652	953.595998859768	536.315099773145	1022.963656949503	968.182528322564	262.145335623376	1122.679683164198	784.762662255602	506.410602994967	1090.477904037597	662.854894933791	585.324976705736	1176.972345456180	625.641798033949	502.616469288652	1205.250648735017	522.135195184231	526.686949770347	1071.422172656585	753.601427852490	295.367106928179	984.568362047614	637.866460727216	233.550657711730	1065.050462149391	561.054191436332	300.815459633007	1062.929711389835	493.463003130661	311.654339946589	1040.293992176175	420.380677020654	302.875661909888	955.105109419808	302.575973278158	251.052090305651	1008.048689097566	194.910851857582	327.223804315372	1149.267009908541	436.785464341243	537.926231485537	1047.819047200753	366.906388945235	605.659103511039	1062.119995190140	257.537776323584	557.160129498143	887.494795988996	137.255691714835	540.365173801741	1067.692979140632	137.040964439005	573.748366693292	965.841977526970	101.220233548922	611.618254495846	1165.330558592244	51.571409136492	596.157410582156	882.711263626114	37.787769634580	369.933679863162	958.306057598174	34.205082339046	290.402022636948	1039.428247429982	97.973160775785	318.356724652356	1169.382499977772	50.093476393213	294.624704738206	985.910999152683	1080.031360378166	94.101337786740	1129.346389480161	859.657201169687	96.469507570578	922.713794711326	1119.880802784349	682.239842790911	956.114824413369	864.510857829334	715.998361191061	
6	29.625714285714	803.265908550189	1004.945549044578	415.238175469112	980.228200137091	1430.300896515921	213.549770733568	1080.228142161399	1371.727870616192	380.074269706437	990.646835142469	1454.091810110184	547.264398543076	969.742233925084	1499.608571306316	366.237361320042	1032.971512940843	953.907195767945	536.333837096070	1022.704868427621	968.354925804750	262.032150416209	1121.339047796373	785.717550898436	506.456359244837	1089.968495904921	664.028282957923	585.971901888449	1175.964442550603	626.914929012323	502.577802448802	1205.885071877550	525.293502626051	526.887065724655	1069.250193817685	753.128381181848	295.736441022693	981.607695072413	638.070592954513	232.968303822683	1060.979763219254	560.544615591690	300.715045614982	1058.205731231494	493.099121327933	311.460297472444	1035.555684976316	420.187054187174	302.605564985359	950.226879555698	302.479631902106	250.707628139153	1002.844506423434	194.807718886338	327.102945152529	1153.694194159056	438.855676911593	538.895104571096	1056.221276040616	364.117592683917	607.215823089798	1076.211903681515	255.354940862608	559.014476038950	908.095385662686	126.579690289260	542.548726010464	1088.214210280043	134.237157494803	575.976118397685	988.013726083670	94.086570265350	613.905871886479	1189.585685624406	53.272384618120	598.701504106944	877.372277979065	37.743171208057	369.933463326019	952.966490362892	34.174230163615	290.384704729561	1034.087585127143	97.942070416738	318.362412543344	1164.053802600078	50.093912160560	294.683955983069	990.273106275817	1080.699585398173	92.346573145329	1138.701318454844	863.514438534320	97.315051143335	915.152854723054	1121.949493562719	682.080863709424	939.334696305634	866.327315061973	721.951038503329	
